G04 #@! TF.GenerationSoftware,KiCad,Pcbnew,7.0.7-7.0.7~ubuntu22.04.1*
G04 #@! TF.CreationDate,2023-08-27T15:16:43-06:00*
G04 #@! TF.ProjectId,Dog Low Water Sensor SMD,446f6720-4c6f-4772-9057-617465722053,rev?*
G04 #@! TF.SameCoordinates,Original*
G04 #@! TF.FileFunction,Legend,Top*
G04 #@! TF.FilePolarity,Positive*
%FSLAX46Y46*%
G04 Gerber Fmt 4.6, Leading zero omitted, Abs format (unit mm)*
G04 Created by KiCad (PCBNEW 7.0.7-7.0.7~ubuntu22.04.1) date 2023-08-27 15:16:43*
%MOMM*%
%LPD*%
G01*
G04 APERTURE LIST*
G04 Aperture macros list*
%AMRoundRect*
0 Rectangle with rounded corners*
0 $1 Rounding radius*
0 $2 $3 $4 $5 $6 $7 $8 $9 X,Y pos of 4 corners*
0 Add a 4 corners polygon primitive as box body*
4,1,4,$2,$3,$4,$5,$6,$7,$8,$9,$2,$3,0*
0 Add four circle primitives for the rounded corners*
1,1,$1+$1,$2,$3*
1,1,$1+$1,$4,$5*
1,1,$1+$1,$6,$7*
1,1,$1+$1,$8,$9*
0 Add four rect primitives between the rounded corners*
20,1,$1+$1,$2,$3,$4,$5,0*
20,1,$1+$1,$4,$5,$6,$7,0*
20,1,$1+$1,$6,$7,$8,$9,0*
20,1,$1+$1,$8,$9,$2,$3,0*%
G04 Aperture macros list end*
%ADD10C,0.150000*%
%ADD11C,0.120000*%
%ADD12RoundRect,0.150000X-0.587500X-0.150000X0.587500X-0.150000X0.587500X0.150000X-0.587500X0.150000X0*%
%ADD13RoundRect,0.200000X-0.200000X-0.275000X0.200000X-0.275000X0.200000X0.275000X-0.200000X0.275000X0*%
%ADD14RoundRect,0.250000X0.750000X-0.750000X0.750000X0.750000X-0.750000X0.750000X-0.750000X-0.750000X0*%
%ADD15C,2.000000*%
%ADD16RoundRect,0.250000X0.750000X0.750000X-0.750000X0.750000X-0.750000X-0.750000X0.750000X-0.750000X0*%
%ADD17RoundRect,0.250000X-0.750000X-0.750000X0.750000X-0.750000X0.750000X0.750000X-0.750000X0.750000X0*%
%ADD18C,2.500000*%
G04 APERTURE END LIST*
D10*
X139446000Y-70358000D02*
X159258000Y-70358000D01*
X159258000Y-89662000D01*
X139446000Y-89662000D01*
X139446000Y-70358000D01*
X154174642Y-76566003D02*
X154098452Y-76527908D01*
X154098452Y-76527908D02*
X154022261Y-76451718D01*
X154022261Y-76451718D02*
X153907975Y-76337432D01*
X153907975Y-76337432D02*
X153831785Y-76299337D01*
X153831785Y-76299337D02*
X153755594Y-76299337D01*
X153793690Y-76489813D02*
X153717499Y-76451718D01*
X153717499Y-76451718D02*
X153641309Y-76375527D01*
X153641309Y-76375527D02*
X153603213Y-76223146D01*
X153603213Y-76223146D02*
X153603213Y-75956479D01*
X153603213Y-75956479D02*
X153641309Y-75804098D01*
X153641309Y-75804098D02*
X153717499Y-75727908D01*
X153717499Y-75727908D02*
X153793690Y-75689813D01*
X153793690Y-75689813D02*
X153946071Y-75689813D01*
X153946071Y-75689813D02*
X154022261Y-75727908D01*
X154022261Y-75727908D02*
X154098452Y-75804098D01*
X154098452Y-75804098D02*
X154136547Y-75956479D01*
X154136547Y-75956479D02*
X154136547Y-76223146D01*
X154136547Y-76223146D02*
X154098452Y-76375527D01*
X154098452Y-76375527D02*
X154022261Y-76451718D01*
X154022261Y-76451718D02*
X153946071Y-76489813D01*
X153946071Y-76489813D02*
X153793690Y-76489813D01*
X154898451Y-76489813D02*
X154441308Y-76489813D01*
X154669880Y-76489813D02*
X154669880Y-75689813D01*
X154669880Y-75689813D02*
X154593689Y-75804098D01*
X154593689Y-75804098D02*
X154517499Y-75880289D01*
X154517499Y-75880289D02*
X154441308Y-75918384D01*
X154159993Y-84781986D02*
X154083803Y-84743891D01*
X154083803Y-84743891D02*
X154007612Y-84667701D01*
X154007612Y-84667701D02*
X153893326Y-84553415D01*
X153893326Y-84553415D02*
X153817136Y-84515320D01*
X153817136Y-84515320D02*
X153740945Y-84515320D01*
X153779041Y-84705796D02*
X153702850Y-84667701D01*
X153702850Y-84667701D02*
X153626660Y-84591510D01*
X153626660Y-84591510D02*
X153588564Y-84439129D01*
X153588564Y-84439129D02*
X153588564Y-84172462D01*
X153588564Y-84172462D02*
X153626660Y-84020081D01*
X153626660Y-84020081D02*
X153702850Y-83943891D01*
X153702850Y-83943891D02*
X153779041Y-83905796D01*
X153779041Y-83905796D02*
X153931422Y-83905796D01*
X153931422Y-83905796D02*
X154007612Y-83943891D01*
X154007612Y-83943891D02*
X154083803Y-84020081D01*
X154083803Y-84020081D02*
X154121898Y-84172462D01*
X154121898Y-84172462D02*
X154121898Y-84439129D01*
X154121898Y-84439129D02*
X154083803Y-84591510D01*
X154083803Y-84591510D02*
X154007612Y-84667701D01*
X154007612Y-84667701D02*
X153931422Y-84705796D01*
X153931422Y-84705796D02*
X153779041Y-84705796D01*
X154388564Y-83905796D02*
X154883802Y-83905796D01*
X154883802Y-83905796D02*
X154617136Y-84210558D01*
X154617136Y-84210558D02*
X154731421Y-84210558D01*
X154731421Y-84210558D02*
X154807612Y-84248653D01*
X154807612Y-84248653D02*
X154845707Y-84286748D01*
X154845707Y-84286748D02*
X154883802Y-84362939D01*
X154883802Y-84362939D02*
X154883802Y-84553415D01*
X154883802Y-84553415D02*
X154845707Y-84629605D01*
X154845707Y-84629605D02*
X154807612Y-84667701D01*
X154807612Y-84667701D02*
X154731421Y-84705796D01*
X154731421Y-84705796D02*
X154502850Y-84705796D01*
X154502850Y-84705796D02*
X154426659Y-84667701D01*
X154426659Y-84667701D02*
X154388564Y-84629605D01*
X144764303Y-75840295D02*
X144497636Y-75459342D01*
X144307160Y-75840295D02*
X144307160Y-75040295D01*
X144307160Y-75040295D02*
X144611922Y-75040295D01*
X144611922Y-75040295D02*
X144688112Y-75078390D01*
X144688112Y-75078390D02*
X144726207Y-75116485D01*
X144726207Y-75116485D02*
X144764303Y-75192676D01*
X144764303Y-75192676D02*
X144764303Y-75306961D01*
X144764303Y-75306961D02*
X144726207Y-75383152D01*
X144726207Y-75383152D02*
X144688112Y-75421247D01*
X144688112Y-75421247D02*
X144611922Y-75459342D01*
X144611922Y-75459342D02*
X144307160Y-75459342D01*
X145526207Y-75840295D02*
X145069064Y-75840295D01*
X145297636Y-75840295D02*
X145297636Y-75040295D01*
X145297636Y-75040295D02*
X145221445Y-75154580D01*
X145221445Y-75154580D02*
X145145255Y-75230771D01*
X145145255Y-75230771D02*
X145069064Y-75268866D01*
X148637826Y-88375247D02*
X148752112Y-88413342D01*
X148752112Y-88413342D02*
X148790207Y-88451438D01*
X148790207Y-88451438D02*
X148828303Y-88527628D01*
X148828303Y-88527628D02*
X148828303Y-88641914D01*
X148828303Y-88641914D02*
X148790207Y-88718104D01*
X148790207Y-88718104D02*
X148752112Y-88756200D01*
X148752112Y-88756200D02*
X148675922Y-88794295D01*
X148675922Y-88794295D02*
X148371160Y-88794295D01*
X148371160Y-88794295D02*
X148371160Y-87994295D01*
X148371160Y-87994295D02*
X148637826Y-87994295D01*
X148637826Y-87994295D02*
X148714017Y-88032390D01*
X148714017Y-88032390D02*
X148752112Y-88070485D01*
X148752112Y-88070485D02*
X148790207Y-88146676D01*
X148790207Y-88146676D02*
X148790207Y-88222866D01*
X148790207Y-88222866D02*
X148752112Y-88299057D01*
X148752112Y-88299057D02*
X148714017Y-88337152D01*
X148714017Y-88337152D02*
X148637826Y-88375247D01*
X148637826Y-88375247D02*
X148371160Y-88375247D01*
X149094969Y-87994295D02*
X149628303Y-87994295D01*
X149628303Y-87994295D02*
X149094969Y-88794295D01*
X149094969Y-88794295D02*
X149628303Y-88794295D01*
X150390208Y-88794295D02*
X150123541Y-88413342D01*
X149933065Y-88794295D02*
X149933065Y-87994295D01*
X149933065Y-87994295D02*
X150237827Y-87994295D01*
X150237827Y-87994295D02*
X150314017Y-88032390D01*
X150314017Y-88032390D02*
X150352112Y-88070485D01*
X150352112Y-88070485D02*
X150390208Y-88146676D01*
X150390208Y-88146676D02*
X150390208Y-88260961D01*
X150390208Y-88260961D02*
X150352112Y-88337152D01*
X150352112Y-88337152D02*
X150314017Y-88375247D01*
X150314017Y-88375247D02*
X150237827Y-88413342D01*
X150237827Y-88413342D02*
X149933065Y-88413342D01*
X144510303Y-78126295D02*
X144243636Y-77745342D01*
X144053160Y-78126295D02*
X144053160Y-77326295D01*
X144053160Y-77326295D02*
X144357922Y-77326295D01*
X144357922Y-77326295D02*
X144434112Y-77364390D01*
X144434112Y-77364390D02*
X144472207Y-77402485D01*
X144472207Y-77402485D02*
X144510303Y-77478676D01*
X144510303Y-77478676D02*
X144510303Y-77592961D01*
X144510303Y-77592961D02*
X144472207Y-77669152D01*
X144472207Y-77669152D02*
X144434112Y-77707247D01*
X144434112Y-77707247D02*
X144357922Y-77745342D01*
X144357922Y-77745342D02*
X144053160Y-77745342D01*
X144815064Y-77402485D02*
X144853160Y-77364390D01*
X144853160Y-77364390D02*
X144929350Y-77326295D01*
X144929350Y-77326295D02*
X145119826Y-77326295D01*
X145119826Y-77326295D02*
X145196017Y-77364390D01*
X145196017Y-77364390D02*
X145234112Y-77402485D01*
X145234112Y-77402485D02*
X145272207Y-77478676D01*
X145272207Y-77478676D02*
X145272207Y-77554866D01*
X145272207Y-77554866D02*
X145234112Y-77669152D01*
X145234112Y-77669152D02*
X144776969Y-78126295D01*
X144776969Y-78126295D02*
X145272207Y-78126295D01*
X152736779Y-88134866D02*
X153498684Y-88134866D01*
X153117731Y-88515819D02*
X153117731Y-87753914D01*
X149786744Y-71733704D02*
X149634363Y-71733704D01*
X149634363Y-71733704D02*
X149558173Y-71771800D01*
X149558173Y-71771800D02*
X149520077Y-71809895D01*
X149520077Y-71809895D02*
X149443887Y-71924180D01*
X149443887Y-71924180D02*
X149405792Y-72076561D01*
X149405792Y-72076561D02*
X149405792Y-72381323D01*
X149405792Y-72381323D02*
X149443887Y-72457514D01*
X149443887Y-72457514D02*
X149481982Y-72495609D01*
X149481982Y-72495609D02*
X149558173Y-72533704D01*
X149558173Y-72533704D02*
X149710554Y-72533704D01*
X149710554Y-72533704D02*
X149786744Y-72495609D01*
X149786744Y-72495609D02*
X149824839Y-72457514D01*
X149824839Y-72457514D02*
X149862935Y-72381323D01*
X149862935Y-72381323D02*
X149862935Y-72190847D01*
X149862935Y-72190847D02*
X149824839Y-72114657D01*
X149824839Y-72114657D02*
X149786744Y-72076561D01*
X149786744Y-72076561D02*
X149710554Y-72038466D01*
X149710554Y-72038466D02*
X149558173Y-72038466D01*
X149558173Y-72038466D02*
X149481982Y-72076561D01*
X149481982Y-72076561D02*
X149443887Y-72114657D01*
X149443887Y-72114657D02*
X149405792Y-72190847D01*
X149177220Y-72533704D02*
X148910553Y-71733704D01*
X148910553Y-71733704D02*
X148643887Y-72533704D01*
X144510303Y-80412295D02*
X144243636Y-80031342D01*
X144053160Y-80412295D02*
X144053160Y-79612295D01*
X144053160Y-79612295D02*
X144357922Y-79612295D01*
X144357922Y-79612295D02*
X144434112Y-79650390D01*
X144434112Y-79650390D02*
X144472207Y-79688485D01*
X144472207Y-79688485D02*
X144510303Y-79764676D01*
X144510303Y-79764676D02*
X144510303Y-79878961D01*
X144510303Y-79878961D02*
X144472207Y-79955152D01*
X144472207Y-79955152D02*
X144434112Y-79993247D01*
X144434112Y-79993247D02*
X144357922Y-80031342D01*
X144357922Y-80031342D02*
X144053160Y-80031342D01*
X144776969Y-79612295D02*
X145272207Y-79612295D01*
X145272207Y-79612295D02*
X145005541Y-79917057D01*
X145005541Y-79917057D02*
X145119826Y-79917057D01*
X145119826Y-79917057D02*
X145196017Y-79955152D01*
X145196017Y-79955152D02*
X145234112Y-79993247D01*
X145234112Y-79993247D02*
X145272207Y-80069438D01*
X145272207Y-80069438D02*
X145272207Y-80259914D01*
X145272207Y-80259914D02*
X145234112Y-80336104D01*
X145234112Y-80336104D02*
X145196017Y-80374200D01*
X145196017Y-80374200D02*
X145119826Y-80412295D01*
X145119826Y-80412295D02*
X144891255Y-80412295D01*
X144891255Y-80412295D02*
X144815064Y-80374200D01*
X144815064Y-80374200D02*
X144776969Y-80336104D01*
X144510303Y-84984295D02*
X144243636Y-84603342D01*
X144053160Y-84984295D02*
X144053160Y-84184295D01*
X144053160Y-84184295D02*
X144357922Y-84184295D01*
X144357922Y-84184295D02*
X144434112Y-84222390D01*
X144434112Y-84222390D02*
X144472207Y-84260485D01*
X144472207Y-84260485D02*
X144510303Y-84336676D01*
X144510303Y-84336676D02*
X144510303Y-84450961D01*
X144510303Y-84450961D02*
X144472207Y-84527152D01*
X144472207Y-84527152D02*
X144434112Y-84565247D01*
X144434112Y-84565247D02*
X144357922Y-84603342D01*
X144357922Y-84603342D02*
X144053160Y-84603342D01*
X145234112Y-84184295D02*
X144853160Y-84184295D01*
X144853160Y-84184295D02*
X144815064Y-84565247D01*
X144815064Y-84565247D02*
X144853160Y-84527152D01*
X144853160Y-84527152D02*
X144929350Y-84489057D01*
X144929350Y-84489057D02*
X145119826Y-84489057D01*
X145119826Y-84489057D02*
X145196017Y-84527152D01*
X145196017Y-84527152D02*
X145234112Y-84565247D01*
X145234112Y-84565247D02*
X145272207Y-84641438D01*
X145272207Y-84641438D02*
X145272207Y-84831914D01*
X145272207Y-84831914D02*
X145234112Y-84908104D01*
X145234112Y-84908104D02*
X145196017Y-84946200D01*
X145196017Y-84946200D02*
X145119826Y-84984295D01*
X145119826Y-84984295D02*
X144929350Y-84984295D01*
X144929350Y-84984295D02*
X144853160Y-84946200D01*
X144853160Y-84946200D02*
X144815064Y-84908104D01*
X145116779Y-71878866D02*
X145878684Y-71878866D01*
X145497731Y-72259819D02*
X145497731Y-71497914D01*
X144510303Y-82952295D02*
X144243636Y-82571342D01*
X144053160Y-82952295D02*
X144053160Y-82152295D01*
X144053160Y-82152295D02*
X144357922Y-82152295D01*
X144357922Y-82152295D02*
X144434112Y-82190390D01*
X144434112Y-82190390D02*
X144472207Y-82228485D01*
X144472207Y-82228485D02*
X144510303Y-82304676D01*
X144510303Y-82304676D02*
X144510303Y-82418961D01*
X144510303Y-82418961D02*
X144472207Y-82495152D01*
X144472207Y-82495152D02*
X144434112Y-82533247D01*
X144434112Y-82533247D02*
X144357922Y-82571342D01*
X144357922Y-82571342D02*
X144053160Y-82571342D01*
X145196017Y-82418961D02*
X145196017Y-82952295D01*
X145005541Y-82114200D02*
X144815064Y-82685628D01*
X144815064Y-82685628D02*
X145310303Y-82685628D01*
X140821704Y-79029160D02*
X141621704Y-79029160D01*
X141621704Y-79029160D02*
X141621704Y-79333922D01*
X141621704Y-79333922D02*
X141583609Y-79410112D01*
X141583609Y-79410112D02*
X141545514Y-79448207D01*
X141545514Y-79448207D02*
X141469323Y-79486303D01*
X141469323Y-79486303D02*
X141355038Y-79486303D01*
X141355038Y-79486303D02*
X141278847Y-79448207D01*
X141278847Y-79448207D02*
X141240752Y-79410112D01*
X141240752Y-79410112D02*
X141202657Y-79333922D01*
X141202657Y-79333922D02*
X141202657Y-79029160D01*
X140821704Y-80286303D02*
X141202657Y-80019636D01*
X140821704Y-79829160D02*
X141621704Y-79829160D01*
X141621704Y-79829160D02*
X141621704Y-80133922D01*
X141621704Y-80133922D02*
X141583609Y-80210112D01*
X141583609Y-80210112D02*
X141545514Y-80248207D01*
X141545514Y-80248207D02*
X141469323Y-80286303D01*
X141469323Y-80286303D02*
X141355038Y-80286303D01*
X141355038Y-80286303D02*
X141278847Y-80248207D01*
X141278847Y-80248207D02*
X141240752Y-80210112D01*
X141240752Y-80210112D02*
X141202657Y-80133922D01*
X141202657Y-80133922D02*
X141202657Y-79829160D01*
X141240752Y-80895826D02*
X141202657Y-81010112D01*
X141202657Y-81010112D02*
X141164561Y-81048207D01*
X141164561Y-81048207D02*
X141088371Y-81086303D01*
X141088371Y-81086303D02*
X140974085Y-81086303D01*
X140974085Y-81086303D02*
X140897895Y-81048207D01*
X140897895Y-81048207D02*
X140859800Y-81010112D01*
X140859800Y-81010112D02*
X140821704Y-80933922D01*
X140821704Y-80933922D02*
X140821704Y-80629160D01*
X140821704Y-80629160D02*
X141621704Y-80629160D01*
X141621704Y-80629160D02*
X141621704Y-80895826D01*
X141621704Y-80895826D02*
X141583609Y-80972017D01*
X141583609Y-80972017D02*
X141545514Y-81010112D01*
X141545514Y-81010112D02*
X141469323Y-81048207D01*
X141469323Y-81048207D02*
X141393133Y-81048207D01*
X141393133Y-81048207D02*
X141316942Y-81010112D01*
X141316942Y-81010112D02*
X141278847Y-80972017D01*
X141278847Y-80972017D02*
X141240752Y-80895826D01*
X141240752Y-80895826D02*
X141240752Y-80629160D01*
X158136295Y-80355887D02*
X158136295Y-80736839D01*
X158136295Y-80736839D02*
X157336295Y-80736839D01*
X157717247Y-80089220D02*
X157717247Y-79822554D01*
X158136295Y-79708268D02*
X158136295Y-80089220D01*
X158136295Y-80089220D02*
X157336295Y-80089220D01*
X157336295Y-80089220D02*
X157336295Y-79708268D01*
X158136295Y-79365410D02*
X157336295Y-79365410D01*
X157336295Y-79365410D02*
X157336295Y-79174934D01*
X157336295Y-79174934D02*
X157374390Y-79060648D01*
X157374390Y-79060648D02*
X157450580Y-78984458D01*
X157450580Y-78984458D02*
X157526771Y-78946363D01*
X157526771Y-78946363D02*
X157679152Y-78908267D01*
X157679152Y-78908267D02*
X157793438Y-78908267D01*
X157793438Y-78908267D02*
X157945819Y-78946363D01*
X157945819Y-78946363D02*
X158022009Y-78984458D01*
X158022009Y-78984458D02*
X158098200Y-79060648D01*
X158098200Y-79060648D02*
X158136295Y-79174934D01*
X158136295Y-79174934D02*
X158136295Y-79365410D01*
X157308779Y-83816866D02*
X158070684Y-83816866D01*
X157689731Y-84197819D02*
X157689731Y-83435914D01*
X154145344Y-80728968D02*
X154069154Y-80690873D01*
X154069154Y-80690873D02*
X153992963Y-80614683D01*
X153992963Y-80614683D02*
X153878677Y-80500397D01*
X153878677Y-80500397D02*
X153802487Y-80462302D01*
X153802487Y-80462302D02*
X153726296Y-80462302D01*
X153764392Y-80652778D02*
X153688201Y-80614683D01*
X153688201Y-80614683D02*
X153612011Y-80538492D01*
X153612011Y-80538492D02*
X153573915Y-80386111D01*
X153573915Y-80386111D02*
X153573915Y-80119444D01*
X153573915Y-80119444D02*
X153612011Y-79967063D01*
X153612011Y-79967063D02*
X153688201Y-79890873D01*
X153688201Y-79890873D02*
X153764392Y-79852778D01*
X153764392Y-79852778D02*
X153916773Y-79852778D01*
X153916773Y-79852778D02*
X153992963Y-79890873D01*
X153992963Y-79890873D02*
X154069154Y-79967063D01*
X154069154Y-79967063D02*
X154107249Y-80119444D01*
X154107249Y-80119444D02*
X154107249Y-80386111D01*
X154107249Y-80386111D02*
X154069154Y-80538492D01*
X154069154Y-80538492D02*
X153992963Y-80614683D01*
X153992963Y-80614683D02*
X153916773Y-80652778D01*
X153916773Y-80652778D02*
X153764392Y-80652778D01*
X154412010Y-79928968D02*
X154450106Y-79890873D01*
X154450106Y-79890873D02*
X154526296Y-79852778D01*
X154526296Y-79852778D02*
X154716772Y-79852778D01*
X154716772Y-79852778D02*
X154792963Y-79890873D01*
X154792963Y-79890873D02*
X154831058Y-79928968D01*
X154831058Y-79928968D02*
X154869153Y-80005159D01*
X154869153Y-80005159D02*
X154869153Y-80081349D01*
X154869153Y-80081349D02*
X154831058Y-80195635D01*
X154831058Y-80195635D02*
X154373915Y-80652778D01*
X154373915Y-80652778D02*
X154869153Y-80652778D01*
X140798779Y-83816866D02*
X141560684Y-83816866D01*
X141179731Y-84197819D02*
X141179731Y-83435914D01*
D11*
X151305500Y-78704000D02*
X149630500Y-78704000D01*
X151305500Y-78704000D02*
X151955500Y-78704000D01*
X151305500Y-81824000D02*
X150655500Y-81824000D01*
X151305500Y-81824000D02*
X151955500Y-81824000D01*
X151305500Y-74574000D02*
X149630500Y-74574000D01*
X151305500Y-74574000D02*
X151955500Y-74574000D01*
X151305500Y-77694000D02*
X150655500Y-77694000D01*
X151305500Y-77694000D02*
X151955500Y-77694000D01*
X146765742Y-75018200D02*
X147240258Y-75018200D01*
X146765742Y-76063200D02*
X147240258Y-76063200D01*
X146765742Y-81843900D02*
X147240258Y-81843900D01*
X146765742Y-82888900D02*
X147240258Y-82888900D01*
X146765742Y-77293500D02*
X147240258Y-77293500D01*
X146765742Y-78338500D02*
X147240258Y-78338500D01*
X146765742Y-79568700D02*
X147240258Y-79568700D01*
X146765742Y-80613700D02*
X147240258Y-80613700D01*
X146765742Y-84119100D02*
X147240258Y-84119100D01*
X146765742Y-85164100D02*
X147240258Y-85164100D01*
X151305500Y-82768000D02*
X149630500Y-82768000D01*
X151305500Y-82768000D02*
X151955500Y-82768000D01*
X151305500Y-85888000D02*
X150655500Y-85888000D01*
X151305500Y-85888000D02*
X151955500Y-85888000D01*
%LPC*%
D12*
X150368000Y-79314000D03*
X150368000Y-81214000D03*
X152243000Y-80264000D03*
X150368000Y-75184000D03*
X150368000Y-77084000D03*
X152243000Y-76134000D03*
D13*
X146178000Y-75540700D03*
X147828000Y-75540700D03*
X146178000Y-82366400D03*
X147828000Y-82366400D03*
X146178000Y-77816000D03*
X147828000Y-77816000D03*
X146178000Y-80091200D03*
X147828000Y-80091200D03*
D14*
X141752300Y-82260000D03*
D15*
X141752300Y-77760000D03*
D13*
X146178000Y-84641600D03*
X147828000Y-84641600D03*
D14*
X156972000Y-82260000D03*
D15*
X156972000Y-77760000D03*
D16*
X151588700Y-87686900D03*
D15*
X147088700Y-87686900D03*
D17*
X147102000Y-72495500D03*
D15*
X151602000Y-72495500D03*
D18*
X156925000Y-87376000D03*
X141752300Y-87319100D03*
X141772600Y-72792500D03*
X156972000Y-72644000D03*
D12*
X150368000Y-83378000D03*
X150368000Y-85278000D03*
X152243000Y-84328000D03*
%LPD*%
M02*
